<svg xmlns="http://www.w3.org/2000/svg" width="166" height="40" viewBox="0 0 166 40">
  <g id="组_3757" data-name="组 3757" transform="translate(-877 -391)">
    <g id="组_2549" data-name="组 2549" transform="translate(857 329)">
      <g id="组_1" data-name="组 1" transform="translate(20 62)">
        <g id="组_16" data-name="组 16" transform="translate(0 0.288)">
          <path id="路径_47" data-name="路径 47" d="M99.69,54.592l6.847.08a3.871,3.871,0,0,0,.785,2,3.445,3.445,0,0,0,2.752,1.11,3.262,3.262,0,0,0,2.056-.567,1.648,1.648,0,0,0,.722-1.316,1.626,1.626,0,0,0-.688-1.273,7.056,7.056,0,0,0-3.192-1.06,27.218,27.218,0,0,1-3.98-1.046,6.34,6.34,0,0,1-2.81-1.529,4.25,4.25,0,0,1-1.02-1.951,4.84,4.84,0,0,1,1.1-3.888,6.253,6.253,0,0,1,2.71-1.971,12.611,12.611,0,0,1,4.96-.718c3.448-.048,4.905.7,5.483,1.041.074.044.226.135.412.263A8.328,8.328,0,0,1,118.98,48.2l-6.609.019a2.78,2.78,0,0,0-.984-1.8,3.385,3.385,0,0,0-2.07-.562,2.443,2.443,0,0,0-1.637.418,1.351,1.351,0,0,0-.55,1.017,1.216,1.216,0,0,0,.455.786c1.142,1.023,4.933,1.342,7.956,2.48,2.6.977,3.421,2.1,3.74,2.633a3.955,3.955,0,0,1,.62,2.02,4.91,4.91,0,0,1-1.756,3.409,9.36,9.36,0,0,1-4.889,2.423,15.458,15.458,0,0,1-3.89.213,14.125,14.125,0,0,1-4.649-.656,8.736,8.736,0,0,1-1.978-.9A7.612,7.612,0,0,1,99.69,54.592Z" transform="translate(-99.36 -42.176)" fill="#3970b7"/>
          <path id="路径_48" data-name="路径 48" d="M110.472,61.339c-.408,0-.856-.009-1.374-.019a14.375,14.375,0,0,1-4.737-.672,9.043,9.043,0,0,1-2.041-.928,7.88,7.88,0,0,1-3.166-5.3L99.1,54.1l7.421.086.033.227a3.652,3.652,0,0,0,.724,1.867,3.146,3.146,0,0,0,2.535,1.014,3,3,0,0,0,1.879-.507,1.393,1.393,0,0,0,.621-1.112,1.368,1.368,0,0,0-.59-1.072,6.315,6.315,0,0,0-2.839-.961l-.225-.043a27.745,27.745,0,0,1-4.022-1.059,6.712,6.712,0,0,1-2.924-1.606,4.493,4.493,0,0,1-1.083-2.076,4.9,4.9,0,0,1,1.152-4.1,6.476,6.476,0,0,1,2.828-2.062,12.914,12.914,0,0,1,5.063-.739,11.024,11.024,0,0,1,5.635,1.082c.077.046.235.142.428.274a8.678,8.678,0,0,1,3.253,4.583l.114.346-7.224.021-.041-.22a2.551,2.551,0,0,0-.882-1.637,3.029,3.029,0,0,0-1.907-.505,2.152,2.152,0,0,0-1.446.354,1.088,1.088,0,0,0-.453.8.979.979,0,0,0,.367.61,10.867,10.867,0,0,0,3.779,1.282,33.5,33.5,0,0,1,4.088,1.147,7.388,7.388,0,0,1,3.88,2.751A4.24,4.24,0,0,1,119.919,55a5.167,5.167,0,0,1-1.833,3.6,9.706,9.706,0,0,1-5.031,2.5A11.485,11.485,0,0,1,110.472,61.339ZM99.765,54.645a7.188,7.188,0,0,0,2.869,4.635,8.412,8.412,0,0,0,1.914.866,13.877,13.877,0,0,0,4.561.641,15.126,15.126,0,0,0,3.823-.207,9.045,9.045,0,0,0,4.748-2.349A4.649,4.649,0,0,0,119.36,55a3.685,3.685,0,0,0-.583-1.891,6.87,6.87,0,0,0-3.6-2.521,33.169,33.169,0,0,0-4.017-1.125c-1.783-.418-3.324-.78-4.028-1.412a1.478,1.478,0,0,1-.542-.964,1.562,1.562,0,0,1,.646-1.236,2.607,2.607,0,0,1,1.811-.484,3.683,3.683,0,0,1,2.253.619,2.934,2.934,0,0,1,1.039,1.741l5.994-.017a8,8,0,0,0-2.926-3.966c-.179-.123-.325-.211-.4-.253a10.432,10.432,0,0,0-5.331-1,12.3,12.3,0,0,0-4.856.7,5.941,5.941,0,0,0-2.593,1.886,4.413,4.413,0,0,0-1.054,3.682,3.963,3.963,0,0,0,.957,1.833,6.232,6.232,0,0,0,2.7,1.456,27.18,27.18,0,0,0,3.937,1.036l.225.042a6.668,6.668,0,0,1,3.094,1.079,1.885,1.885,0,0,1,.785,1.477,1.907,1.907,0,0,1-.824,1.523,3.548,3.548,0,0,1-2.235.63,3.728,3.728,0,0,1-2.967-1.209,3.947,3.947,0,0,1-.808-1.9Z" transform="translate(-99.099 -41.956)" fill="#3970b7"/>
        </g>
        <g id="组_17" data-name="组 17" transform="translate(19.704 0.618)">
          <path id="路径_49" data-name="路径 49" d="M137.508,43.046h8.2l3.161,11.113L152,43.046h8.192V61.31l-6.848.024q.872-6.977,1.744-13.953L151.158,61.31h-4.621l-3.925-13.929V61.31l-7.695.038Q136.212,52.2,137.508,43.046Z" transform="translate(-134.597 -42.766)" fill="#3970b7"/>
          <path id="路径_50" data-name="路径 50" d="M134.344,61.409l2.667-18.863h8.654l2.946,10.372,2.925-10.372h8.685V61.368l-7.442.026L154.1,50.786l-2.984,10.583H146.07l-3.431-12.194V61.368ZM137.5,43.078l-2.515,17.795,7.095-.035V45.132l4.42,15.7h4.191l3.878-13.752.547.1L153.409,60.86l6.254-.022V43.078h-7.7l-3.352,11.886-3.376-11.886Z" transform="translate(-134.344 -42.546)" fill="#3970b7"/>
        </g>
        <g id="组_18" data-name="组 18" transform="translate(46.85 0.618)">
          <path id="路径_51" data-name="路径 51" d="M198.048,58.3h-7.075q-.024,1.452-.049,2.9l-7.3.111,7.581-18.264H198l7.579,18.264-7.554.034Q198.039,59.82,198.048,58.3Zm-.958-2.424q-1.281-4.046-2.56-8.091L191.287,55.8Z" transform="translate(-183.212 -42.766)" fill="#3970b7"/>
          <path id="路径_52" data-name="路径 52" d="M197.422,61.4l.018-3.055h-6.519l-.049,2.9-7.987.121,7.8-18.83h7.179l7.8,18.822Zm-7.051-3.587H198l-.018,3.052,6.863-.031-7.359-17.76h-6.417l-7.358,17.752,6.609-.1Zm6.77-1.891-6.585-.081,3.679-9.114Zm-5.776-.6,5.02.063-2.215-7.011Z" transform="translate(-182.886 -42.546)" fill="#3970b7"/>
        </g>
        <g id="组_19" data-name="组 19" transform="translate(71.009 0.618)">
          <path id="路径_53" data-name="路径 53" d="M226.594,61.311V43.046h10.387a16.566,16.566,0,0,1,4.416.449,4.93,4.93,0,0,1,2.683,7.245,5.367,5.367,0,0,1-1.968,1.788,8.048,8.048,0,0,1-2.189.722,6.557,6.557,0,0,1,1.622.674,5.991,5.991,0,0,1,1,.96,7.194,7.194,0,0,1,.873,1.135l3.018,5.293h-7.042l-2.7-5.656a10.7,10.7,0,0,0-1.023-1.6,3.885,3.885,0,0,0-1.219-1.172,2.959,2.959,0,0,0-.9-.32l-.729-.053,1.982,8.855Zm6.26-10.864h2.628a10.329,10.329,0,0,0,1.651-.249,1.68,1.68,0,0,0,1.012-.573,1.588,1.588,0,0,0,.392-1.059,1.608,1.608,0,0,0-.619-1.358,4.055,4.055,0,0,0-2.326-.474h-2.738Z" transform="translate(-226.314 -42.766)" fill="#3970b7"/>
          <path id="路径_54" data-name="路径 54" d="M234.925,61.426l-8.832-.057V42.546H236.76a16.89,16.89,0,0,1,4.5.461,5.2,5.2,0,0,1,2.838,7.65,5.663,5.663,0,0,1-2.067,1.881,6.747,6.747,0,0,1-1.376.537,4.552,4.552,0,0,1,.83.412,6.139,6.139,0,0,1,1.05,1.009,7.3,7.3,0,0,1,.907,1.185l3.241,5.69H238.99l-2.778-5.82a10.583,10.583,0,0,0-.993-1.555,3.585,3.585,0,0,0-1.132-1.1,2.793,2.793,0,0,0-.783-.287l-.354-.026Zm-8.273-.587,7.581.05L232.247,52l1.1.081a3.16,3.16,0,0,1,1.012.354,4.167,4.167,0,0,1,1.307,1.248,11.043,11.043,0,0,1,1.048,1.641l2.634,5.516h6.393l-2.795-4.907a7.034,7.034,0,0,0-.841-1.091,5.494,5.494,0,0,0-.941-.914,6.333,6.333,0,0,0-1.549-.64l-1-.3,1.023-.211a7.8,7.8,0,0,0,2.109-.694,5.135,5.135,0,0,0,1.871-1.7,4.916,4.916,0,0,0-.208-5.293,4.437,4.437,0,0,0-2.32-1.569,16.378,16.378,0,0,0-4.334-.437H226.652Zm8.608-10.35h-2.907v-4.25h3.017a4.251,4.251,0,0,1,2.5.533,1.984,1.984,0,0,1,.269,2.8,1.964,1.964,0,0,1-1.177.668A10.284,10.284,0,0,1,235.26,50.49Zm-2.348-.532h2.348a9.582,9.582,0,0,0,1.593-.243,1.4,1.4,0,0,0,.853-.481,1.33,1.33,0,0,0,.33-.893,1.351,1.351,0,0,0-.515-1.153,3.675,3.675,0,0,0-2.15-.415h-2.458Z" transform="translate(-226.093 -42.546)" fill="#3970b7"/>
        </g>
        <g id="组_20" data-name="组 20" transform="translate(91.182 0.618)">
          <path id="路径_55" data-name="路径 55" d="M262.671,43.046h18.945v4.511h-6.357V61.315l-8.587.122,2.355-13.88h-6.356Z" transform="translate(-262.391 -42.766)" fill="#3970b7"/>
          <path id="路径_56" data-name="路径 56" d="M266.124,61.5l2.355-13.9h-6.308v-5.05h19.5V47.6h-6.356V61.37ZM262.73,47.064h6.405l-2.354,13.895,7.978-.113V47.064h6.356V43.078H262.73Z" transform="translate(-262.171 -42.546)" fill="#3970b7"/>
        </g>
        <g id="组_21" data-name="组 21" transform="translate(108.285 13.534)">
          <path id="路径_57" data-name="路径 57" d="M293.261,67.843h5.985v5.346h-5.985Z" transform="translate(-292.981 -67.563)" fill="#3970b7"/>
          <path id="路径_58" data-name="路径 58" d="M299.3,73.247H292.76V67.342H299.3Zm-5.985-.559h5.426V67.9h-5.426Z" transform="translate(-292.76 -67.342)" fill="#3970b7"/>
        </g>
        <g id="组_22" data-name="组 22" transform="translate(112.033)">
          <path id="路径_59" data-name="路径 59" d="M301.741,43.038,310.582,43l2.132,10.225q.543-5.141,1.086-10.281h9.748l1.312,10.267L326.992,43h9l-8.674,18.265h-5l-3.537-11.5-3.524,11.5H310.15Z" transform="translate(-300.46 -42.102)" fill="#91b508"/>
          <path id="路径_60" data-name="路径 60" d="M326.853,61.439h-6.169l-2.907-9.491-2.9,9.491h-6.289L299.45,41.545l10.81-.051,1.172,5.644.6-5.7H323.28l.768,6.04,1.245-5.984h10.992Zm-4.912-1.6h3.83L333.688,43.1H326.67l-3.022,14.523-1.854-14.579h-8.246l-1.573,14.951L308.885,43.1l-6.873.033,7.676,16.7h3.935l4.152-13.6Z" transform="translate(-299.45 -41.441)" fill="#3970b7"/>
        </g>
        <g id="组_23" data-name="组 23" transform="translate(147.208 0.059)">
          <path id="路径_61" data-name="路径 61" d="M363.87,43.046h10.359A7.577,7.577,0,0,1,379.3,44.5a5.188,5.188,0,0,1,1.686,4.149,5.363,5.363,0,0,1-1.836,4.323c-1.611,1.366-3.688,1.464-5.606,1.557-.472.023-1.062.033-1.744,0l1.548,6.76-9.476.016Zm6.894,7.786h.893a4.243,4.243,0,0,0,2.531-.567,1.761,1.761,0,0,0,.729-1.452,1.929,1.929,0,0,0-.633-1.457,3.523,3.523,0,0,0-2.38-.6H370.13Z" transform="translate(-363.031 -42.207)" fill="#91b508"/>
          <path id="路径_62" data-name="路径 62" d="M362.369,61.487V41.546h11.2a8.4,8.4,0,0,1,5.634,1.672,5.993,5.993,0,0,1,1.959,4.758,6.171,6.171,0,0,1-2.117,4.939c-1.83,1.558-4.107,1.668-6.116,1.766-.248.012-.5.019-.746.021l1.543,6.766Zm1.677-18.34V59.883l7.6-.013-1.56-6.842,1.095.053c.553.027,1.11.027,1.659,0,1.823-.088,3.7-.179,5.091-1.362a4.607,4.607,0,0,0,1.556-3.744,4.436,4.436,0,0,0-1.412-3.573,6.786,6.786,0,0,0-4.5-1.255Zm6.948,7.818h-1.617l-.882-5.692h2.746a4.227,4.227,0,0,1,2.972.833,2.705,2.705,0,0,1,.88,2.031,2.565,2.565,0,0,1-1.036,2.077A4.953,4.953,0,0,1,370.995,50.965Zm-.17-1.6h.17a3.371,3.371,0,0,0,2-.389.985.985,0,0,0,.421-.837,1.162,1.162,0,0,0-.385-.9c-.116-.11-.524-.368-1.79-.368h-.8Z" transform="translate(-362.369 -41.546)" fill="#3970b7"/>
        </g>
      </g>
      <text id="思沃普会议管理平台" transform="translate(37 99)" fill="#3970b7" font-size="12" font-family="YuGothicUI-Regular, Yu Gothic UI" letter-spacing="0.249em"><tspan x="0" y="0">思沃普会</tspan><tspan y="0" font-family="MicrosoftJhengHeiUIRegular, Microsoft JhengHei UI">议</tspan><tspan y="0">管理平台</tspan></text>
    </g>
  </g>
</svg>
